# xmcd
#
# Track frame offsets:
#	150
#	19355
#	42711
#	69954
#	91612
#	111952
#	132486
#	149827
#	173369
#	196318
#	220349
#	236877
#	254493
#	277609
#	298785
#
# Disc length: 4267 seconds
#
# Revision: 0
# Processed by: cddbd v1.4PL0 Copyright (c) Steve Scherf et al.
# Submitted via: dBpowerAMP V4.0
#
DISCID=e810a90f
DTITLE=Hong Ngoc - Trai tim be bong
DYEAR=1900
DGENRE=
TTITLE0=Anh da den roi di
TTITLE1=Mong cho
TTITLE2=TInh yeu giac mo
TTITLE3=Dem chia tay
TTITLE4=Trai tim be bong
TTITLE5=Giac mo mua dong
TTITLE6=Cho mot tieng yeu
TTITLE7=Noi nho trong dem
TTITLE8=Minh mai ben nhau
TTITLE9=Nhu la thu phai
TTITLE10=Ha Noi co em
TTITLE11=Giac mo xa
TTITLE12=Trai tim yeu nguoi
TTITLE13=Giac mo sa mac
TTITLE14=Vi sao le loi
EXTD=
EXTT0=
EXTT1=
EXTT2=
EXTT3=
EXTT4=
EXTT5=
EXTT6=
EXTT7=
EXTT8=
EXTT9=
EXTT10=
EXTT11=
EXTT12=
EXTT13=
EXTT14=
PLAYORDER=
